<svg width="320" height="320" viewBox="0 0 320 320" fill="none" xmlns="http://www.w3.org/2000/svg">
<g clip-path="url(#clip0_97_512)">
<rect x="228" y="8" width="84" height="84" stroke="#2E333A" stroke-width="16"/>
<rect x="247.551" y="26.5305" width="45.9184" height="45.9184" fill="#15467D"/>
<rect x="8" y="8" width="84" height="84" stroke="#15467D" stroke-width="16"/>
<rect x="28.5" y="27.5" width="45" height="45" fill="#15467D" stroke="#15467D"/>
<rect x="8" y="228" width="84" height="84" stroke="#2E333A" stroke-width="16"/>
<rect x="27.551" y="246.531" width="45.9184" height="45.9184" fill="#15467D"/>
<rect x="208" y="228" width="53.2856" height="53.2856" stroke="#15467D" stroke-width="16"/>
<path d="M227.5 247H243.5V263H227.5V247Z" fill="#2E333A"/>
<rect y="200" width="10" height="10" fill="#2E333A"/>
<rect y="190" width="10" height="10" fill="#2E333A"/>
<rect x="20" y="190" width="10" height="10" fill="#2E333A"/>
<rect x="20" y="200" width="10" height="10" fill="#2E333A"/>
<rect x="50" y="200" width="10" height="10" fill="#2E333A"/>
<rect x="60" y="200" width="10" height="10" fill="#2E333A"/>
<rect x="60" y="190" width="10" height="10" fill="#2E333A"/>
<rect x="70" y="190" width="10" height="10" fill="#2E333A"/>
<rect x="80" y="190" width="10" height="10" fill="#2E333A"/>
<rect x="10" y="180" width="10" height="10" fill="#15467D"/>
<rect x="10" y="170" width="10" height="10" fill="#15467D"/>
<rect x="20" y="170" width="10" height="10" fill="#15467D"/>
<rect y="160" width="10" height="10" fill="#15467D"/>
<rect x="10" y="160" width="10" height="10" fill="#15467D"/>
<rect x="20" y="150" width="10" height="10" fill="#15467D"/>
<rect x="30" y="140" width="10" height="10" fill="#15467D"/>
<rect x="20" y="130" width="10" height="10" fill="#15467D"/>
<rect x="20" y="130" width="10" height="10" fill="#15467D"/>
<rect x="20" y="130" width="10" height="10" fill="#15467D"/>
<rect x="20" y="130" width="10" height="10" fill="#15467D"/>
<rect x="20" y="130" width="10" height="10" fill="#15467D"/>
<rect x="30" y="120" width="10" height="10" fill="#15467D"/>
<rect x="20" y="110" width="10" height="10" fill="#15467D"/>
<rect x="40" y="120" width="10" height="10" fill="#15467D"/>
<rect x="40" y="130" width="10" height="10" fill="#15467D"/>
<rect x="50" y="130" width="10" height="10" fill="#15467D"/>
<rect x="60" y="130" width="10" height="10" fill="#15467D"/>
<rect x="70" y="130" width="10" height="10" fill="#15467D"/>
<rect x="80" y="130" width="10" height="10" fill="#15467D"/>
<rect x="50" y="140" width="10" height="10" fill="#15467D"/>
<rect x="40" y="150" width="10" height="10" fill="#15467D"/>
<rect x="30" y="160" width="10" height="10" fill="#15467D"/>
<rect x="50" y="160" width="10" height="10" fill="#15467D"/>
<rect x="40" y="170" width="10" height="10" fill="#15467D"/>
<rect x="30" y="180" width="10" height="10" fill="#15467D"/>
<rect x="50" y="180" width="10" height="10" fill="#15467D"/>
<rect x="40" y="190" width="10" height="10" fill="#15467D"/>
<rect x="60" y="170" width="10" height="10" fill="#15467D"/>
<rect x="70" y="170" width="10" height="10" fill="#15467D"/>
<rect x="60" y="150" width="10" height="10" fill="#15467D"/>
<rect x="70" y="160" width="10" height="10" fill="#15467D"/>
<rect x="80" y="160" width="10" height="10" fill="#15467D"/>
<rect y="140" width="10" height="10" fill="#2E333A"/>
<rect y="120" width="10" height="10" fill="#2E3338"/>
<rect x="10" y="120" width="10" height="10" fill="#2E333A"/>
<rect y="110" width="10" height="10" fill="#2E333A"/>
<rect x="50" y="110" width="10" height="10" fill="#15467D"/>
<rect x="60" y="110" width="10" height="10" fill="#15467D"/>
<rect x="70" y="110" width="10" height="10" fill="#15467D"/>
<rect x="80" y="110" width="10" height="10" fill="#15467D"/>
<rect x="110" y="310" width="10" height="10" fill="#2E333A"/>
<rect x="120" y="300" width="10" height="10" fill="#15467D"/>
<rect x="120" y="290" width="10" height="10" fill="#15467D"/>
<rect x="130" y="290" width="10" height="10" fill="#15467D"/>
<rect x="140" y="290" width="10" height="10" fill="#15467D"/>
<rect x="130" y="280" width="10" height="10" fill="#15467D"/>
<rect x="110" y="280" width="10" height="10" fill="#15467D"/>
<rect x="120" y="270" width="10" height="10" fill="#15467D"/>
<rect x="130" y="260" width="10" height="10" fill="#15467D"/>
<rect x="130" y="250" width="10" height="10" fill="#15467D"/>
<rect x="110" y="260" width="10" height="10" fill="#15467D"/>
<rect x="110" y="250" width="10" height="10" fill="#15467D"/>
<rect x="110" y="240" width="10" height="10" fill="#15467D"/>
<rect x="110" y="230" width="10" height="10" fill="#15467D"/>
<rect x="150" y="300" width="10" height="10" fill="#15467D"/>
<rect x="160" y="310" width="10" height="10" fill="#15467D"/>
<rect x="140" y="310" width="10" height="10" fill="#15467D"/>
<rect x="170" y="300" width="10" height="10" fill="#15467D"/>
<rect x="170" y="290" width="10" height="10" fill="#15467D"/>
<rect x="180" y="300" width="10" height="10" fill="#15467D"/>
<rect x="180" y="280" width="10" height="10" fill="#15467D"/>
<rect x="170" y="280" width="10" height="10" fill="#15467D"/>
<rect x="160" y="290" width="10" height="10" fill="#15467D"/>
<rect x="150" y="280" width="10" height="10" fill="#15467D"/>
<rect x="140" y="270" width="10" height="10" fill="#15467D"/>
<rect x="160" y="270" width="10" height="10" fill="#15467D"/>
<rect x="160" y="260" width="10" height="10" fill="#15467D"/>
<rect x="190" y="310" width="10" height="10" fill="#2E333A"/>
<rect x="200" y="310" width="10" height="10" fill="#2E333A"/>
<rect x="200" y="300" width="10" height="10" fill="#15467D"/>
<rect x="190" y="290" width="10" height="10" fill="#2E333A"/>
<rect x="200" y="290" width="10" height="10" fill="#2E333A"/>
<rect x="210" y="300" width="10" height="10" fill="#15467D"/>
<rect x="220" y="300" width="10" height="10" fill="#15467D"/>
<rect x="230" y="300" width="10" height="10" fill="#15467D"/>
<rect x="240" y="310" width="10" height="10" fill="#15467D"/>
<rect x="250" y="300" width="10" height="10" fill="#2E333A"/>
<rect x="260" y="290" width="10" height="10" fill="#2E333A"/>
<rect x="260" y="310" width="10" height="10" fill="#15467D"/>
<rect x="270" y="300" width="10" height="10" fill="#15467D"/>
<rect x="280" y="290" width="10" height="10" fill="#2E333A"/>
<rect x="280" y="280" width="10" height="10" fill="#2E333A"/>
<rect x="300" y="270" width="10" height="10" fill="#15467D"/>
<rect x="300" y="260" width="10" height="10" fill="#15467D"/>
<rect x="280" y="250" width="10" height="10" fill="#15467D"/>
<rect x="290" y="280" width="10" height="10" fill="#15467D"/>
<rect x="290" y="240" width="10" height="10" fill="#15467D"/>
<rect x="290" y="230" width="10" height="10" fill="#15467D"/>
<rect x="310" y="220" width="10" height="10" fill="#15467D"/>
<rect x="290" y="250" width="10" height="10" fill="#15467D"/>
<rect x="300" y="210" width="10" height="10" fill="#15467D"/>
<rect x="310" y="200" width="10" height="10" fill="#15467D"/>
<rect x="300" y="190" width="10" height="10" fill="#2E333A"/>
<rect x="300" y="180" width="10" height="10" fill="#2E333A"/>
<rect x="300" y="170" width="10" height="10" fill="#2E333A"/>
<rect x="310" y="160" width="10" height="10" fill="#2E333A"/>
<rect x="310" y="140" width="10" height="10" fill="#2E333A"/>
<rect x="310" y="120" width="10" height="10" fill="#15467D"/>
<rect x="300" y="120" width="10" height="10" fill="#15467D"/>
<rect x="290" y="110" width="10" height="10" fill="#15467D"/>
<rect x="300" y="110" width="10" height="10" fill="#15467D"/>
<rect x="300" y="140" width="10" height="10" fill="#2E333A"/>
<rect x="290" y="150" width="10" height="10" fill="#15467D"/>
<rect x="280" y="150" width="10" height="10" fill="#15467D"/>
<rect x="260" y="160" width="10" height="10" fill="#15467D"/>
<rect x="270" y="160" width="10" height="10" fill="#15467D"/>
<rect x="280" y="160" width="10" height="10" fill="#15467D"/>
<rect x="280" y="140" width="10" height="10" fill="#15467D"/>
<rect x="270" y="130" width="10" height="10" fill="#15467D"/>
<rect x="280" y="120" width="10" height="10" fill="#15467D"/>
<rect x="270" y="110" width="10" height="10" fill="#15467D"/>
<rect x="260" y="120" width="10" height="10" fill="#15467D"/>
<rect x="250" y="110" width="10" height="10" fill="#15467D"/>
<rect x="250" y="130" width="10" height="10" fill="#15467D"/>
<rect x="260" y="140" width="10" height="10" fill="#15467D"/>
<rect x="260" y="150" width="10" height="10" fill="#15467D"/>
<rect x="240" y="150" width="10" height="10" fill="#15467D"/>
<rect x="250" y="150" width="10" height="10" fill="#15467D"/>
<rect x="250" y="180" width="10" height="10" fill="#15467D"/>
<rect x="250" y="190" width="10" height="10" fill="#15467D"/>
<rect x="240" y="170" width="10" height="10" fill="#15467D"/>
<rect x="220" y="180" width="10" height="10" fill="#2E333A"/>
<rect x="220" y="190" width="10" height="10" fill="#2E333A"/>
<rect x="220" y="190" width="10" height="10" fill="#2E333A"/>
<rect x="220" y="170" width="10" height="10" fill="#2E333A"/>
<rect x="230" y="160" width="10" height="10" fill="#2E333A"/>
<rect x="270" y="200" width="10" height="10" fill="#2E333A"/>
<rect x="280" y="200" width="10" height="10" fill="#2E333A"/>
<rect x="290" y="200" width="10" height="10" fill="#2E333A"/>
<rect x="270" y="180" width="10" height="10" fill="#15467D"/>
<rect x="180" y="250" width="10" height="10" fill="#2E333A"/>
<rect x="180" y="230" width="10" height="10" fill="#2E333A"/>
<rect x="180" y="220" width="10" height="10" fill="#2E333A"/>
<rect x="230" y="120" width="10" height="10" fill="#2E333A"/>
<rect x="240" y="120" width="10" height="10" fill="#2E333A"/>
<rect x="220" y="130" width="10" height="10" fill="#2E333A"/>
<rect x="230" y="140" width="10" height="10" fill="#2E333A"/>
<rect x="300" y="310" width="10" height="10" fill="#2E333A"/>
<rect x="310" y="310" width="10" height="10" fill="#2E333A"/>
<rect x="310" y="300" width="10" height="10" fill="#2E333A"/>
<rect x="110" width="10" height="10" fill="#2E333A"/>
<rect x="120" y="10" width="10" height="10" fill="#15467D"/>
<rect x="130" width="10" height="10" fill="#15467D"/>
<rect x="140" y="10" width="10" height="10" fill="#15467D"/>
<rect x="150" width="10" height="10" fill="#15467D"/>
<rect x="160" y="10" width="10" height="10" fill="#15467D"/>
<rect x="160" y="20" width="10" height="10" fill="#15467D"/>
<rect x="170" y="20" width="10" height="10" fill="#15467D"/>
<rect x="180" y="20" width="10" height="10" fill="#15467D"/>
<rect x="200" width="10" height="10" fill="#15467D"/>
<rect x="200" y="20" width="10" height="10" fill="#15467D"/>
<rect x="200" y="30" width="10" height="10" fill="#15467D"/>
<rect x="190" y="40" width="10" height="10" fill="#15467D"/>
<rect x="200" y="50" width="10" height="10" fill="#15467D"/>
<rect x="200" y="60" width="10" height="10" fill="#15467D"/>
<rect x="200" y="70" width="10" height="10" fill="#15467D"/>
<rect x="180" y="50" width="10" height="10" fill="#15467D"/>
<rect x="180" y="60" width="10" height="10" fill="#15467D"/>
<rect x="170" y="40" width="10" height="10" fill="#15467D"/>
<rect x="170" y="30" width="10" height="10" fill="#15467D"/>
<rect x="160" y="50" width="10" height="10" fill="#15467D"/>
<rect x="160" y="60" width="10" height="10" fill="#15467D"/>
<rect x="150" y="30" width="10" height="10" fill="#15467D"/>
<rect x="130" y="20" width="10" height="10" fill="#15467D"/>
<rect x="130" y="30" width="10" height="10" fill="#15467D"/>
<rect x="140" y="40" width="10" height="10" fill="#15467D"/>
<rect x="120" y="40" width="10" height="10" fill="#15467D"/>
<rect x="130" y="50" width="10" height="10" fill="#15467D"/>
<rect x="120" y="20" width="10" height="10" fill="#15467D"/>
<rect x="110" y="20" width="10" height="10" fill="#15467D"/>
<rect x="190" y="10" width="10" height="10" fill="#15467D"/>
<rect x="110" y="40" width="10" height="10" fill="#15467D"/>
<rect x="110" y="60" width="10" height="10" fill="#15467D"/>
<rect x="110" y="70" width="10" height="10" fill="#15467D"/>
<rect x="130" y="60" width="10" height="10" fill="#15467D"/>
<rect x="140" y="70" width="10" height="10" fill="#15467D"/>
<rect x="140" y="70" width="10" height="10" fill="#15467D"/>
<rect x="140" y="70" width="10" height="10" fill="#15467D"/>
<rect x="140" y="70" width="10" height="10" fill="#15467D"/>
<rect x="140" y="70" width="10" height="10" fill="#15467D"/>
<rect x="140" y="70" width="10" height="10" fill="#15467D"/>
<rect x="140" y="70" width="10" height="10" fill="#15467D"/>
<rect x="170" y="70" width="10" height="10" fill="#15467D"/>
<rect x="120" y="80" width="10" height="10" fill="#15467D"/>
<rect x="130" y="80" width="10" height="10" fill="#15467D"/>
<rect x="140" y="90" width="10" height="10" fill="#15467D"/>
<rect x="150" y="100" width="10" height="10" fill="#15467D"/>
<rect x="150" y="80" width="10" height="10" fill="#15467D"/>
<rect x="160" y="90" width="10" height="10" fill="#15467D"/>
<rect x="170" y="100" width="10" height="10" fill="#15467D"/>
<rect x="180" y="90" width="10" height="10" fill="#15467D"/>
<rect x="90" y="120" width="10" height="10" fill="#15467D"/>
<rect x="100" y="110" width="10" height="10" fill="#15467D"/>
<rect x="90" y="140" width="10" height="10" fill="#15467D"/>
<rect x="90" y="150" width="10" height="10" fill="#15467D"/>
<rect x="90" y="170" width="10" height="10" fill="#15467D"/>
<rect x="100" y="160" width="10" height="10" fill="#15467D"/>
<rect x="100" y="130" width="10" height="10" fill="#15467D"/>
<rect x="200" y="110" width="10" height="10" fill="#15467D"/>
<rect x="210" y="110" width="10" height="10" fill="#15467D"/>
<rect x="190" y="80" width="10" height="10" fill="#15467D"/>
<rect x="190" y="100" width="10" height="10" fill="#15467D"/>
<rect x="220" y="110" width="10" height="10" fill="#15467D"/>
<rect x="210" y="150" width="10" height="10" fill="#15467D"/>
<rect x="220" y="150" width="10" height="10" fill="#15467D"/>
<rect x="160" y="240" width="10" height="10" fill="#15467D"/>
<rect x="160" y="230" width="10" height="10" fill="#15467D"/>
<rect x="150" y="220" width="10" height="10" fill="#15467D"/>
<rect x="170" y="240" width="10" height="10" fill="#15467D"/>
<rect x="130" y="220" width="10" height="10" fill="#15467D"/>
<rect x="140" y="230" width="10" height="10" fill="#15467D"/>
<rect x="120" y="210" width="10" height="10" fill="#15467D"/>
<rect x="110" y="220" width="10" height="10" fill="#15467D"/>
<rect x="120" y="200" width="10" height="10" fill="#15467D"/>
<rect x="160" y="210" width="10" height="10" fill="#15467D"/>
<rect x="170" y="200" width="10" height="10" fill="#15467D"/>
<rect x="210" y="200" width="10" height="10" fill="#15467D"/>
<rect x="200" y="200" width="10" height="10" fill="#15467D"/>
<rect x="220" y="200" width="10" height="10" fill="#15467D"/>
<rect x="240" y="200" width="10" height="10" fill="#15467D"/>
<rect x="310" y="260" width="10" height="10" fill="#15467D"/>
<rect x="310" y="250" width="10" height="10" fill="#15467D"/>
<rect x="310" y="240" width="10" height="10" fill="#15467D"/>
<rect x="280" y="220" width="10" height="10" fill="#15467D"/>
<rect x="270" y="210" width="10" height="10" fill="#15467D"/>
<rect x="280" y="260" width="10" height="10" fill="#15467D"/>
<rect x="280" y="270" width="10" height="10" fill="#15467D"/>
</g>
<path d="M155 84.4785C162.054 89.0069 172.518 94.497 183.833 99.1592C195.252 103.864 208.248 108.024 220 109.298V138.3C220 154.117 211.836 174.996 198.601 195.72C186.541 214.601 170.826 232.477 155 245.155C139.174 232.477 123.459 214.601 111.399 195.72C98.1637 174.996 90 154.117 90 138.3V109.298C101.752 108.024 114.748 103.864 126.167 99.1592C137.482 94.497 147.946 89.0069 155 84.4785Z" fill="#15467D" stroke="white" stroke-width="14"/>
<path d="M177 150.6H172.6V137.4C172.6 127.72 164.68 119.8 155 119.8C145.32 119.8 137.4 127.72 137.4 137.4V150.6H133C130.8 150.6 128.6 152.8 128.6 155V185.8C128.6 188 130.8 190.2 133 190.2H177C179.2 190.2 181.4 188 181.4 185.8V155C181.4 152.8 179.2 150.6 177 150.6ZM159.4 181.4H150.6L152.36 171.72C150.16 170.84 148.4 168.2 148.4 166C148.4 162.48 151.48 159.4 155 159.4C158.52 159.4 161.6 162.48 161.6 166C161.6 168.64 160.28 170.84 157.64 171.72L159.4 181.4ZM163.8 150.6H146.2V137.4C146.2 132.56 150.16 128.6 155 128.6C159.84 128.6 163.8 132.56 163.8 137.4V150.6Z" fill="white"/>
<defs>
<clipPath id="clip0_97_512">
<rect width="320" height="320" fill="white"/>
</clipPath>
</defs>
</svg>
