<svg width="440" height="529" viewBox="0 0 440 529" fill="none" xmlns="http://www.w3.org/2000/svg">
<g clip-path="url(#clip0_97_788)">
<rect x="310.5" y="8" width="121.5" height="121.5" stroke="#2E333A" stroke-width="16"/>
<rect x="340.383" y="36.4814" width="63.1377" height="63.1377" fill="#15467D"/>
<rect x="8" y="8" width="121.5" height="121.5" stroke="#15467D" stroke-width="16"/>
<rect x="39" y="37.625" width="62.25" height="62.25" fill="#15467D" stroke="#15467D"/>
<rect x="8" y="310.5" width="121.5" height="121.5" stroke="#2E333A" stroke-width="16"/>
<rect x="37.8826" y="338.98" width="63.1377" height="63.1377" fill="#15467D"/>
<rect x="283" y="310.5" width="53.2856" height="53.2856" stroke="#15467D" stroke-width="16"/>
<path d="M302.5 329.5H318.5V345.5H302.5V329.5Z" fill="#2E333A"/>
<rect y="275" width="13.75" height="13.75" fill="#2E333A"/>
<rect y="261.25" width="13.75" height="13.75" fill="#2E333A"/>
<rect x="27.5" y="261.25" width="13.75" height="13.75" fill="#2E333A"/>
<rect x="27.5" y="275" width="13.75" height="13.75" fill="#2E333A"/>
<rect x="68.75" y="275" width="13.75" height="13.75" fill="#2E333A"/>
<rect x="82.5" y="275" width="13.75" height="13.75" fill="#2E333A"/>
<rect x="82.5" y="261.25" width="13.75" height="13.75" fill="#2E333A"/>
<rect x="96.25" y="261.25" width="13.75" height="13.75" fill="#2E333A"/>
<rect x="110" y="261.25" width="13.75" height="13.75" fill="#2E333A"/>
<rect x="13.75" y="247.5" width="13.75" height="13.75" fill="#15467D"/>
<rect x="13.75" y="233.75" width="13.75" height="13.75" fill="#15467D"/>
<rect x="27.5" y="233.75" width="13.75" height="13.75" fill="#15467D"/>
<rect y="220" width="13.75" height="13.75" fill="#15467D"/>
<rect x="13.75" y="220" width="13.75" height="13.75" fill="#15467D"/>
<rect x="27.5" y="206.25" width="13.75" height="13.75" fill="#15467D"/>
<rect x="41.25" y="192.5" width="13.75" height="13.75" fill="#15467D"/>
<rect x="27.5" y="178.75" width="13.75" height="13.75" fill="#15467D"/>
<rect x="27.5" y="178.75" width="13.75" height="13.75" fill="#15467D"/>
<rect x="27.5" y="178.75" width="13.75" height="13.75" fill="#15467D"/>
<rect x="27.5" y="178.75" width="13.75" height="13.75" fill="#15467D"/>
<rect x="27.5" y="178.75" width="13.75" height="13.75" fill="#15467D"/>
<rect x="41.25" y="165" width="13.75" height="13.75" fill="#15467D"/>
<rect x="27.5" y="151.25" width="13.75" height="13.75" fill="#15467D"/>
<rect x="55" y="165" width="13.75" height="13.75" fill="#15467D"/>
<rect x="55" y="178.75" width="13.75" height="13.75" fill="#15467D"/>
<rect x="68.75" y="178.75" width="13.75" height="13.75" fill="#15467D"/>
<rect x="82.5" y="178.75" width="13.75" height="13.75" fill="#15467D"/>
<rect x="96.25" y="178.75" width="13.75" height="13.75" fill="#15467D"/>
<rect x="110" y="178.75" width="13.75" height="13.75" fill="#15467D"/>
<rect x="68.75" y="192.5" width="13.75" height="13.75" fill="#15467D"/>
<rect x="55" y="206.25" width="13.75" height="13.75" fill="#15467D"/>
<rect x="41.25" y="220" width="13.75" height="13.75" fill="#15467D"/>
<rect x="68.75" y="220" width="13.75" height="13.75" fill="#15467D"/>
<rect x="55" y="233.75" width="13.75" height="13.75" fill="#15467D"/>
<rect x="41.25" y="247.5" width="13.75" height="13.75" fill="#15467D"/>
<rect x="68.75" y="247.5" width="13.75" height="13.75" fill="#15467D"/>
<rect x="55" y="261.25" width="13.75" height="13.75" fill="#15467D"/>
<rect x="82.5" y="233.75" width="13.75" height="13.75" fill="#15467D"/>
<rect x="96.25" y="233.75" width="13.75" height="13.75" fill="#15467D"/>
<rect x="82.5" y="206.25" width="13.75" height="13.75" fill="#15467D"/>
<rect x="96.25" y="220" width="13.75" height="13.75" fill="#15467D"/>
<rect x="110" y="220" width="13.75" height="13.75" fill="#15467D"/>
<rect y="192.5" width="13.75" height="13.75" fill="#2E333A"/>
<rect y="165" width="13.75" height="13.75" fill="#2E3338"/>
<rect x="13.75" y="165" width="13.75" height="13.75" fill="#2E333A"/>
<rect y="151.25" width="13.75" height="13.75" fill="#2E333A"/>
<rect x="68.75" y="151.25" width="13.75" height="13.75" fill="#15467D"/>
<rect x="82.5" y="151.25" width="13.75" height="13.75" fill="#15467D"/>
<rect x="96.25" y="151.25" width="13.75" height="13.75" fill="#15467D"/>
<rect x="110" y="151.25" width="13.75" height="13.75" fill="#15467D"/>
<rect x="151.25" y="426.25" width="13.75" height="13.75" fill="#2E333A"/>
<rect x="165" y="412.5" width="13.75" height="13.75" fill="#15467D"/>
<rect x="165" y="398.75" width="13.75" height="13.75" fill="#15467D"/>
<rect x="178.75" y="398.75" width="13.75" height="13.75" fill="#15467D"/>
<rect x="192.5" y="398.75" width="13.75" height="13.75" fill="#15467D"/>
<rect x="178.75" y="385" width="13.75" height="13.75" fill="#15467D"/>
<rect x="151.25" y="385" width="13.75" height="13.75" fill="#15467D"/>
<rect x="165" y="371.25" width="13.75" height="13.75" fill="#15467D"/>
<rect x="178.75" y="357.5" width="13.75" height="13.75" fill="#15467D"/>
<rect x="178.75" y="343.75" width="13.75" height="13.75" fill="#15467D"/>
<rect x="151.25" y="357.5" width="13.75" height="13.75" fill="#15467D"/>
<rect x="151.25" y="343.75" width="13.75" height="13.75" fill="#15467D"/>
<rect x="151.25" y="330" width="13.75" height="13.75" fill="#15467D"/>
<rect x="151.25" y="316.25" width="13.75" height="13.75" fill="#15467D"/>
<rect x="206.25" y="412.5" width="13.75" height="13.75" fill="#15467D"/>
<rect x="220" y="426.25" width="13.75" height="13.75" fill="#15467D"/>
<rect x="192.5" y="426.25" width="13.75" height="13.75" fill="#15467D"/>
<rect x="233.75" y="412.5" width="13.75" height="13.75" fill="#15467D"/>
<rect x="233.75" y="398.75" width="13.75" height="13.75" fill="#15467D"/>
<rect x="247.5" y="412.5" width="13.75" height="13.75" fill="#15467D"/>
<rect x="247.5" y="385" width="13.75" height="13.75" fill="#15467D"/>
<rect x="233.75" y="385" width="13.75" height="13.75" fill="#15467D"/>
<rect x="220" y="398.75" width="13.75" height="13.75" fill="#15467D"/>
<rect x="206.25" y="385" width="13.75" height="13.75" fill="#15467D"/>
<rect x="192.5" y="371.25" width="13.75" height="13.75" fill="#15467D"/>
<rect x="220" y="371.25" width="13.75" height="13.75" fill="#15467D"/>
<rect x="220" y="357.5" width="13.75" height="13.75" fill="#15467D"/>
<rect x="261.25" y="426.25" width="13.75" height="13.75" fill="#2E333A"/>
<rect x="275" y="426.25" width="13.75" height="13.75" fill="#2E333A"/>
<rect x="275" y="412.5" width="13.75" height="13.75" fill="#15467D"/>
<rect x="261.25" y="398.75" width="13.75" height="13.75" fill="#2E333A"/>
<rect x="275" y="398.75" width="13.75" height="13.75" fill="#2E333A"/>
<rect x="288.75" y="412.5" width="13.75" height="13.75" fill="#15467D"/>
<rect x="302.5" y="412.5" width="13.75" height="13.75" fill="#15467D"/>
<rect x="316.25" y="412.5" width="13.75" height="13.75" fill="#15467D"/>
<rect x="330" y="426.25" width="13.75" height="13.75" fill="#15467D"/>
<rect x="343.75" y="412.5" width="13.75" height="13.75" fill="#2E333A"/>
<rect x="357.5" y="398.75" width="13.75" height="13.75" fill="#2E333A"/>
<rect x="357.5" y="426.25" width="13.75" height="13.75" fill="#15467D"/>
<rect x="371.25" y="412.5" width="13.75" height="13.75" fill="#15467D"/>
<rect x="385" y="398.75" width="13.75" height="13.75" fill="#2E333A"/>
<rect x="385" y="385" width="13.75" height="13.75" fill="#2E333A"/>
<rect x="412.5" y="371.25" width="13.75" height="13.75" fill="#15467D"/>
<rect x="412.5" y="357.5" width="13.75" height="13.75" fill="#15467D"/>
<rect x="385" y="343.75" width="13.75" height="13.75" fill="#15467D"/>
<rect x="398.75" y="385" width="13.75" height="13.75" fill="#15467D"/>
<rect x="398.75" y="330" width="13.75" height="13.75" fill="#15467D"/>
<rect x="398.75" y="316.25" width="13.75" height="13.75" fill="#15467D"/>
<rect x="426.25" y="302.5" width="13.75" height="13.75" fill="#15467D"/>
<rect x="398.75" y="343.75" width="13.75" height="13.75" fill="#15467D"/>
<rect x="412.5" y="288.75" width="13.75" height="13.75" fill="#15467D"/>
<rect x="426.25" y="275" width="13.75" height="13.75" fill="#15467D"/>
<rect x="412.5" y="261.25" width="13.75" height="13.75" fill="#2E333A"/>
<rect x="412.5" y="247.5" width="13.75" height="13.75" fill="#2E333A"/>
<rect x="412.5" y="233.75" width="13.75" height="13.75" fill="#2E333A"/>
<rect x="426.25" y="220" width="13.75" height="13.75" fill="#2E333A"/>
<rect x="426.25" y="192.5" width="13.75" height="13.75" fill="#2E333A"/>
<rect x="426.25" y="165" width="13.75" height="13.75" fill="#15467D"/>
<rect x="412.5" y="165" width="13.75" height="13.75" fill="#15467D"/>
<rect x="398.75" y="151.25" width="13.75" height="13.75" fill="#15467D"/>
<rect x="412.5" y="151.25" width="13.75" height="13.75" fill="#15467D"/>
<rect x="412.5" y="192.5" width="13.75" height="13.75" fill="#2E333A"/>
<rect x="398.75" y="206.25" width="13.75" height="13.75" fill="#15467D"/>
<rect x="385" y="206.25" width="13.75" height="13.75" fill="#15467D"/>
<rect x="357.5" y="220" width="13.75" height="13.75" fill="#15467D"/>
<rect x="371.25" y="220" width="13.75" height="13.75" fill="#15467D"/>
<rect x="385" y="220" width="13.75" height="13.75" fill="#15467D"/>
<rect x="385" y="192.5" width="13.75" height="13.75" fill="#15467D"/>
<rect x="371.25" y="178.75" width="13.75" height="13.75" fill="#15467D"/>
<rect x="385" y="165" width="13.75" height="13.75" fill="#15467D"/>
<rect x="371.25" y="151.25" width="13.75" height="13.75" fill="#15467D"/>
<rect x="357.5" y="165" width="13.75" height="13.75" fill="#15467D"/>
<rect x="343.75" y="151.25" width="13.75" height="13.75" fill="#15467D"/>
<rect x="343.75" y="178.75" width="13.75" height="13.75" fill="#15467D"/>
<rect x="357.5" y="192.5" width="13.75" height="13.75" fill="#15467D"/>
<rect x="357.5" y="206.25" width="13.75" height="13.75" fill="#15467D"/>
<rect x="330" y="206.25" width="13.75" height="13.75" fill="#15467D"/>
<rect x="343.75" y="206.25" width="13.75" height="13.75" fill="#15467D"/>
<rect x="343.75" y="247.5" width="13.75" height="13.75" fill="#15467D"/>
<rect x="343.75" y="261.25" width="13.75" height="13.75" fill="#15467D"/>
<rect x="330" y="233.75" width="13.75" height="13.75" fill="#15467D"/>
<rect x="302.5" y="247.5" width="13.75" height="13.75" fill="#2E333A"/>
<rect x="302.5" y="261.25" width="13.75" height="13.75" fill="#2E333A"/>
<rect x="302.5" y="261.25" width="13.75" height="13.75" fill="#2E333A"/>
<rect x="302.5" y="233.75" width="13.75" height="13.75" fill="#2E333A"/>
<rect x="316.25" y="220" width="13.75" height="13.75" fill="#2E333A"/>
<rect x="371.25" y="275" width="13.75" height="13.75" fill="#2E333A"/>
<rect x="385" y="275" width="13.75" height="13.75" fill="#2E333A"/>
<rect x="398.75" y="275" width="13.75" height="13.75" fill="#2E333A"/>
<rect x="371.25" y="247.5" width="13.75" height="13.75" fill="#15467D"/>
<rect x="247.5" y="343.75" width="13.75" height="13.75" fill="#2E333A"/>
<rect x="247.5" y="316.25" width="13.75" height="13.75" fill="#2E333A"/>
<rect x="247.5" y="302.5" width="13.75" height="13.75" fill="#2E333A"/>
<rect x="316.25" y="165" width="13.75" height="13.75" fill="#2E333A"/>
<rect x="330" y="165" width="13.75" height="13.75" fill="#2E333A"/>
<rect x="302.5" y="178.75" width="13.75" height="13.75" fill="#2E333A"/>
<rect x="316.25" y="192.5" width="13.75" height="13.75" fill="#2E333A"/>
<rect x="412.5" y="426.25" width="13.75" height="13.75" fill="#2E333A"/>
<rect x="426.25" y="426.25" width="13.75" height="13.75" fill="#2E333A"/>
<rect x="426.25" y="412.5" width="13.75" height="13.75" fill="#2E333A"/>
<rect x="151.25" width="13.75" height="13.75" fill="#2E333A"/>
<rect x="165" y="13.75" width="13.75" height="13.75" fill="#15467D"/>
<rect x="178.75" width="13.75" height="13.75" fill="#15467D"/>
<rect x="192.5" y="13.75" width="13.75" height="13.75" fill="#15467D"/>
<rect x="206.25" width="13.75" height="13.75" fill="#15467D"/>
<rect x="220" y="13.75" width="13.75" height="13.75" fill="#15467D"/>
<rect x="220" y="27.5" width="13.75" height="13.75" fill="#15467D"/>
<rect x="233.75" y="27.5" width="13.75" height="13.75" fill="#15467D"/>
<rect x="247.5" y="27.5" width="13.75" height="13.75" fill="#15467D"/>
<rect x="275" width="13.75" height="13.75" fill="#15467D"/>
<rect x="275" y="27.5" width="13.75" height="13.75" fill="#15467D"/>
<rect x="275" y="41.25" width="13.75" height="13.75" fill="#15467D"/>
<rect x="261.25" y="55" width="13.75" height="13.75" fill="#15467D"/>
<rect x="275" y="68.75" width="13.75" height="13.75" fill="#15467D"/>
<rect x="275" y="82.5" width="13.75" height="13.75" fill="#15467D"/>
<rect x="275" y="96.25" width="13.75" height="13.75" fill="#15467D"/>
<rect x="247.5" y="68.75" width="13.75" height="13.75" fill="#15467D"/>
<rect x="247.5" y="82.5" width="13.75" height="13.75" fill="#15467D"/>
<rect x="233.75" y="55" width="13.75" height="13.75" fill="#15467D"/>
<rect x="233.75" y="41.25" width="13.75" height="13.75" fill="#15467D"/>
<rect x="220" y="68.75" width="13.75" height="13.75" fill="#15467D"/>
<rect x="220" y="82.5" width="13.75" height="13.75" fill="#15467D"/>
<rect x="206.25" y="41.25" width="13.75" height="13.75" fill="#15467D"/>
<rect x="178.75" y="27.5" width="13.75" height="13.75" fill="#15467D"/>
<rect x="178.75" y="41.25" width="13.75" height="13.75" fill="#15467D"/>
<rect x="192.5" y="55" width="13.75" height="13.75" fill="#15467D"/>
<rect x="165" y="55" width="13.75" height="13.75" fill="#15467D"/>
<rect x="178.75" y="68.75" width="13.75" height="13.75" fill="#15467D"/>
<rect x="165" y="27.5" width="13.75" height="13.75" fill="#15467D"/>
<rect x="151.25" y="27.5" width="13.75" height="13.75" fill="#15467D"/>
<rect x="261.25" y="13.75" width="13.75" height="13.75" fill="#15467D"/>
<rect x="151.25" y="55" width="13.75" height="13.75" fill="#15467D"/>
<rect x="151.25" y="82.5" width="13.75" height="13.75" fill="#15467D"/>
<rect x="151.25" y="96.25" width="13.75" height="13.75" fill="#15467D"/>
<rect x="178.75" y="82.5" width="13.75" height="13.75" fill="#15467D"/>
<rect x="192.5" y="96.25" width="13.75" height="13.75" fill="#15467D"/>
<rect x="192.5" y="96.25" width="13.75" height="13.75" fill="#15467D"/>
<rect x="192.5" y="96.25" width="13.75" height="13.75" fill="#15467D"/>
<rect x="192.5" y="96.25" width="13.75" height="13.75" fill="#15467D"/>
<rect x="192.5" y="96.25" width="13.75" height="13.75" fill="#15467D"/>
<rect x="192.5" y="96.25" width="13.75" height="13.75" fill="#15467D"/>
<rect x="192.5" y="96.25" width="13.75" height="13.75" fill="#15467D"/>
<rect x="233.75" y="96.25" width="13.75" height="13.75" fill="#15467D"/>
<rect x="165" y="110" width="13.75" height="13.75" fill="#15467D"/>
<rect x="178.75" y="110" width="13.75" height="13.75" fill="#15467D"/>
<rect x="192.5" y="123.75" width="13.75" height="13.75" fill="#15467D"/>
<rect x="206.25" y="137.5" width="13.75" height="13.75" fill="#15467D"/>
<rect x="206.25" y="110" width="13.75" height="13.75" fill="#15467D"/>
<rect x="220" y="123.75" width="13.75" height="13.75" fill="#15467D"/>
<rect x="233.75" y="137.5" width="13.75" height="13.75" fill="#15467D"/>
<rect x="247.5" y="123.75" width="13.75" height="13.75" fill="#15467D"/>
<rect x="123.75" y="165" width="13.75" height="13.75" fill="#15467D"/>
<rect x="137.5" y="151.25" width="13.75" height="13.75" fill="#15467D"/>
<rect x="123.75" y="192.5" width="13.75" height="13.75" fill="#15467D"/>
<rect x="123.75" y="206.25" width="13.75" height="13.75" fill="#15467D"/>
<rect x="123.75" y="233.75" width="13.75" height="13.75" fill="#15467D"/>
<rect x="137.5" y="220" width="13.75" height="13.75" fill="#15467D"/>
<rect x="137.5" y="178.75" width="13.75" height="13.75" fill="#15467D"/>
<rect x="275" y="151.25" width="13.75" height="13.75" fill="#15467D"/>
<rect x="288.75" y="151.25" width="13.75" height="13.75" fill="#15467D"/>
<rect x="261.25" y="110" width="13.75" height="13.75" fill="#15467D"/>
<rect x="261.25" y="137.5" width="13.75" height="13.75" fill="#15467D"/>
<rect x="302.5" y="151.25" width="13.75" height="13.75" fill="#15467D"/>
<rect x="288.75" y="206.25" width="13.75" height="13.75" fill="#15467D"/>
<rect x="302.5" y="206.25" width="13.75" height="13.75" fill="#15467D"/>
<rect x="220" y="330" width="13.75" height="13.75" fill="#15467D"/>
<rect x="220" y="316.25" width="13.75" height="13.75" fill="#15467D"/>
<rect x="206.25" y="302.5" width="13.75" height="13.75" fill="#15467D"/>
<rect x="233.75" y="330" width="13.75" height="13.75" fill="#15467D"/>
<rect x="178.75" y="302.5" width="13.75" height="13.75" fill="#15467D"/>
<rect x="192.5" y="316.25" width="13.75" height="13.75" fill="#15467D"/>
<rect x="165" y="288.75" width="13.75" height="13.75" fill="#15467D"/>
<rect x="151.25" y="302.5" width="13.75" height="13.75" fill="#15467D"/>
<rect x="165" y="275" width="13.75" height="13.75" fill="#15467D"/>
<rect x="220" y="288.75" width="13.75" height="13.75" fill="#15467D"/>
<rect x="233.75" y="275" width="13.75" height="13.75" fill="#15467D"/>
<rect x="288.75" y="275" width="13.75" height="13.75" fill="#15467D"/>
<rect x="275" y="275" width="13.75" height="13.75" fill="#15467D"/>
<rect x="302.5" y="275" width="13.75" height="13.75" fill="#15467D"/>
<rect x="330" y="275" width="13.75" height="13.75" fill="#15467D"/>
<rect x="426.25" y="357.5" width="13.75" height="13.75" fill="#15467D"/>
<rect x="426.25" y="343.75" width="13.75" height="13.75" fill="#15467D"/>
<rect x="426.25" y="330" width="13.75" height="13.75" fill="#15467D"/>
<rect x="385" y="302.5" width="13.75" height="13.75" fill="#15467D"/>
<rect x="371.25" y="288.75" width="13.75" height="13.75" fill="#15467D"/>
<rect x="385" y="357.5" width="13.75" height="13.75" fill="#15467D"/>
<rect x="385" y="371.25" width="13.75" height="13.75" fill="#15467D"/>
</g>
<path d="M213.125 113.025C222.613 119.294 237.513 127.218 253.771 133.917C270.184 140.68 288.765 146.526 305.125 147.904V190.162C305.125 212.654 293.586 241.877 275.288 270.527C258.162 297.343 235.699 322.735 213.125 340.443C190.551 322.735 168.088 297.343 150.962 270.527C132.664 241.877 121.125 212.654 121.125 190.162V147.904C137.485 146.526 156.066 140.68 172.479 133.917C188.737 127.218 203.637 119.294 213.125 113.025Z" fill="#15467D" stroke="white" stroke-width="14"/>
<path d="M243.375 207.075H237.325V188.925C237.325 175.615 226.435 164.725 213.125 164.725C199.815 164.725 188.925 175.615 188.925 188.925V207.075H182.875C179.85 207.075 176.825 210.1 176.825 213.125V255.475C176.825 258.5 179.85 261.525 182.875 261.525H243.375C246.4 261.525 249.425 258.5 249.425 255.475V213.125C249.425 210.1 246.4 207.075 243.375 207.075ZM219.175 249.425H207.075L209.495 236.115C206.47 234.905 204.05 231.275 204.05 228.25C204.05 223.41 208.285 219.175 213.125 219.175C217.965 219.175 222.2 223.41 222.2 228.25C222.2 231.88 220.385 234.905 216.755 236.115L219.175 249.425ZM225.225 207.075H201.025V188.925C201.025 182.27 206.47 176.825 213.125 176.825C219.78 176.825 225.225 182.27 225.225 188.925V207.075Z" fill="white"/>
<path d="M38.498 496.344C38.498 495.082 38.3001 493.969 37.9043 493.004C37.5332 492.014 36.8652 491.124 35.9004 490.332C34.9603 489.54 33.6491 488.786 31.9668 488.068C30.3092 487.351 28.2064 486.621 25.6582 485.879C22.9863 485.087 20.5742 484.209 18.4219 483.244C16.2695 482.255 14.4264 481.129 12.8926 479.867C11.3587 478.605 10.1836 477.158 9.36719 475.525C8.55078 473.893 8.14258 472.025 8.14258 469.922C8.14258 467.819 8.57552 465.877 9.44141 464.096C10.3073 462.314 11.5443 460.768 13.1523 459.457C14.7852 458.121 16.7272 457.082 18.9785 456.34C21.2298 455.598 23.7409 455.227 26.5117 455.227C30.569 455.227 34.0078 456.006 36.8281 457.564C39.6732 459.098 41.8379 461.115 43.3223 463.613C44.8066 466.087 45.5488 468.734 45.5488 471.555H38.4238C38.4238 469.526 37.9909 467.732 37.125 466.174C36.2591 464.59 34.9479 463.354 33.1914 462.463C31.4349 461.548 29.2083 461.09 26.5117 461.09C23.9635 461.09 21.8607 461.473 20.2031 462.24C18.5456 463.007 17.3086 464.046 16.4922 465.357C15.7005 466.669 15.3047 468.165 15.3047 469.848C15.3047 470.986 15.5397 472.025 16.0098 472.965C16.5046 473.88 17.2591 474.734 18.2734 475.525C19.3125 476.317 20.6237 477.047 22.207 477.715C23.8151 478.383 25.7324 479.026 27.959 479.645C31.0267 480.51 33.6738 481.475 35.9004 482.539C38.127 483.603 39.9577 484.803 41.3926 486.139C42.8522 487.45 43.9284 488.947 44.6211 490.629C45.3385 492.286 45.6973 494.167 45.6973 496.27C45.6973 498.471 45.252 500.463 44.3613 502.244C43.4707 504.025 42.1966 505.547 40.5391 506.809C38.8815 508.07 36.89 509.048 34.5645 509.74C32.2637 510.408 29.6908 510.742 26.8457 510.742C24.347 510.742 21.8854 510.396 19.4609 509.703C17.0612 509.01 14.8717 507.971 12.8926 506.586C10.9382 505.201 9.36719 503.493 8.17969 501.465C7.01693 499.411 6.43555 497.036 6.43555 494.34H13.5605C13.5605 496.195 13.9193 497.791 14.6367 499.127C15.3542 500.438 16.3314 501.527 17.5684 502.393C18.8301 503.258 20.2526 503.902 21.8359 504.322C23.444 504.718 25.1139 504.916 26.8457 504.916C29.3444 504.916 31.4596 504.57 33.1914 503.877C34.9232 503.184 36.2344 502.195 37.125 500.908C38.0404 499.622 38.498 498.1 38.498 496.344ZM57.0898 455.969H64.0293L81.7305 500.018L99.3945 455.969H106.371L84.4023 510H78.9844L57.0898 455.969ZM54.8262 455.969H60.9492L61.9512 488.922V510H54.8262V455.969ZM102.475 455.969H108.598V510H101.473V488.922L102.475 455.969ZM141.848 460.756L123.961 510H116.65L137.246 455.969H141.959L141.848 460.756ZM156.84 510L138.916 460.756L138.805 455.969H143.518L164.188 510H156.84ZM155.912 489.998V495.861H125.557V489.998H155.912ZM171.424 455.969H189.311C193.368 455.969 196.794 456.587 199.59 457.824C202.41 459.061 204.55 460.892 206.01 463.316C207.494 465.716 208.236 468.673 208.236 472.186C208.236 474.66 207.729 476.923 206.715 478.977C205.725 481.005 204.29 482.737 202.41 484.172C200.555 485.582 198.328 486.633 195.73 487.326L193.727 488.105H176.916L176.842 482.279H189.533C192.106 482.279 194.246 481.834 195.953 480.943C197.66 480.028 198.947 478.803 199.812 477.27C200.678 475.736 201.111 474.041 201.111 472.186C201.111 470.107 200.703 468.289 199.887 466.73C199.07 465.172 197.784 463.972 196.027 463.131C194.296 462.265 192.057 461.832 189.311 461.832H178.586V510H171.424V455.969ZM203.004 510L189.867 485.508L197.326 485.471L210.648 509.555V510H203.004ZM235.252 455.969V510H228.201V455.969H235.252ZM252.619 455.969V461.832H210.871V455.969H252.619Z" fill="#15467D"/>
<path d="M280.562 488.811H266.127V482.984H280.562C283.358 482.984 285.622 482.539 287.354 481.648C289.085 480.758 290.347 479.521 291.139 477.938C291.955 476.354 292.363 474.548 292.363 472.52C292.363 470.664 291.955 468.92 291.139 467.287C290.347 465.654 289.085 464.343 287.354 463.354C285.622 462.339 283.358 461.832 280.562 461.832H267.797V510H260.635V455.969H280.562C284.645 455.969 288.096 456.674 290.916 458.084C293.736 459.494 295.876 461.449 297.336 463.947C298.796 466.421 299.525 469.254 299.525 472.445C299.525 475.909 298.796 478.865 297.336 481.314C295.876 483.764 293.736 485.632 290.916 486.918C288.096 488.18 284.645 488.811 280.562 488.811ZM350.18 481.277V484.691C350.18 488.749 349.673 492.385 348.658 495.602C347.644 498.818 346.184 501.551 344.279 503.803C342.374 506.054 340.086 507.773 337.414 508.961C334.767 510.148 331.798 510.742 328.508 510.742C325.316 510.742 322.385 510.148 319.713 508.961C317.066 507.773 314.765 506.054 312.811 503.803C310.881 501.551 309.384 498.818 308.32 495.602C307.257 492.385 306.725 488.749 306.725 484.691V481.277C306.725 477.22 307.244 473.596 308.283 470.404C309.347 467.188 310.844 464.454 312.773 462.203C314.703 459.927 316.992 458.195 319.639 457.008C322.311 455.82 325.242 455.227 328.434 455.227C331.724 455.227 334.693 455.82 337.34 457.008C340.012 458.195 342.3 459.927 344.205 462.203C346.135 464.454 347.607 467.188 348.621 470.404C349.66 473.596 350.18 477.22 350.18 481.277ZM343.092 484.691V481.203C343.092 477.987 342.758 475.142 342.09 472.668C341.447 470.194 340.494 468.116 339.232 466.434C337.971 464.751 336.424 463.477 334.594 462.611C332.788 461.745 330.734 461.312 328.434 461.312C326.207 461.312 324.191 461.745 322.385 462.611C320.604 463.477 319.07 464.751 317.783 466.434C316.521 468.116 315.544 470.194 314.852 472.668C314.159 475.142 313.812 477.987 313.812 481.203V484.691C313.812 487.932 314.159 490.802 314.852 493.301C315.544 495.775 316.534 497.865 317.82 499.572C319.132 501.255 320.678 502.529 322.459 503.395C324.265 504.26 326.281 504.693 328.508 504.693C330.833 504.693 332.899 504.26 334.705 503.395C336.511 502.529 338.033 501.255 339.27 499.572C340.531 497.865 341.484 495.775 342.127 493.301C342.77 490.802 343.092 487.932 343.092 484.691ZM393.672 504.174V510H366.656V504.174H393.672ZM368.066 455.969V510H360.904V455.969H368.066ZM434.641 504.174V510H407.625V504.174H434.641ZM409.035 455.969V510H401.873V455.969H409.035Z" fill="#2E333A"/>
<defs>
<clipPath id="clip0_97_788">
<rect width="440" height="440" fill="white"/>
</clipPath>
</defs>
</svg>
